<svg width="292" height="167" viewBox="0 0 292 167" fill="none" xmlns="http://www.w3.org/2000/svg">
<g clip-path="url(#clip0_192_23)">
<path d="M272.146 0H288.098C289 0 289.724 0.742498 289.703 1.6442L287.526 93.1364C287.505 94.0071 286.794 94.7031 285.921 94.7031H274.322C273.451 94.7031 272.738 94.0071 272.718 93.1364L270.542 1.6442C270.521 0.742498 271.245 0 272.146 0Z" fill="#343638"/>
<path d="M53.7237 87.102L83.8731 123.057C84.7494 124.103 84.0069 125.698 82.6431 125.698H65.3754C64.8992 125.698 64.4484 125.486 64.1426 125.12L43.4372 100.277C42.7961 99.5089 41.6183 99.5061 40.9758 100.271L20.1168 125.124C19.8125 125.488 19.3631 125.698 18.8883 125.698H1.60791C0.245493 125.698 -0.497005 124.107 0.376522 123.062L30.5386 86.9456C31.0373 86.3496 31.0373 85.4817 30.5386 84.8857L0.376522 48.7696C-0.497005 47.7242 0.245493 46.1335 1.60791 46.1335H18.5713C19.0446 46.1335 19.4955 46.342 19.7984 46.7055L40.8223 71.7237C41.4647 72.4873 42.6369 72.4873 43.2794 71.7237L64.3032 46.7055C64.6076 46.342 65.057 46.1335 65.5318 46.1335H82.6628C84.0238 46.1335 84.7677 47.7214 83.897 48.7682L53.7209 85.0435C53.2249 85.6409 53.2249 86.5088 53.7251 87.1048L53.7237 87.102Z" fill="#343638"/>
<path d="M172.17 125.698C172.17 137.686 168.541 147.419 161.28 154.899C154.02 162.379 143.977 166.118 131.155 166.118C120.95 166.118 112.073 164.201 104.521 160.364C103.984 160.092 103.653 159.533 103.653 158.93V144.104C103.653 142.82 105.082 142.055 106.145 142.771C113.839 147.939 122.654 150.523 132.585 150.523C139.58 150.523 144.958 148.376 148.72 144.079C152.485 139.781 154.364 133.655 154.364 125.698V120.692C154.364 119.324 152.756 118.572 151.725 119.465C145.698 124.681 138.629 127.288 130.518 127.288C121.617 127.288 114.118 124.211 108.023 118.059C101.93 111.905 98.8823 104.372 98.8823 95.4611V47.7355C98.8823 46.8478 99.6009 46.1293 100.487 46.1293H114.923C115.81 46.1293 116.528 46.8493 116.528 47.7355V93.3928C116.528 98.4846 118.33 102.809 121.932 106.362C125.536 109.917 129.935 111.693 135.128 111.693C140.427 111.693 144.958 109.917 148.72 106.362C152.485 102.809 154.364 98.4846 154.364 93.3928V47.7355C154.364 46.8478 155.081 46.1293 155.969 46.1293H170.409C171.294 46.1293 172.012 46.8464 172.013 47.7326L172.17 125.696V125.698Z" fill="#343638"/>
<path d="M187.177 112.513L229.782 63.4294C230.683 62.3896 229.947 60.7693 228.57 60.7693H189.025C188.138 60.7693 187.418 60.0508 187.418 59.1632V47.7355C187.418 46.8493 188.138 46.1293 189.025 46.1293H253.378C254.264 46.1293 254.982 46.8493 254.982 47.7355V57.9431C254.982 58.3291 254.842 58.7025 254.59 58.9955L211.818 108.398C210.916 109.439 211.655 111.056 213.031 111.056H254.171C255.058 111.056 255.778 111.776 255.778 112.664V124.092C255.778 124.978 255.058 125.698 254.171 125.698H188.388C187.5 125.698 186.783 124.979 186.783 124.092V113.567C186.783 113.181 186.922 112.806 187.176 112.515L187.177 112.513Z" fill="#343638"/>
<path d="M194.929 152.615V153.597C194.929 153.827 194.805 153.942 194.559 153.942H190.711C189.491 153.942 188.532 153.597 187.833 152.905C187.134 152.215 186.786 151.251 186.786 150.011V144.328C186.786 143.089 187.134 142.123 187.833 141.434C188.533 140.744 189.491 140.397 190.711 140.397H194.559C194.805 140.397 194.929 140.521 194.929 140.769V141.751C194.929 141.981 194.805 142.096 194.559 142.096H190.924C189.456 142.096 188.723 142.867 188.723 144.405V149.928C188.723 151.47 189.456 152.24 190.924 152.24H194.559C194.805 152.24 194.929 152.364 194.929 152.611V152.615Z" fill="#343638"/>
<path d="M201.506 152.243H203.363C204.848 152.243 205.592 151.484 205.592 149.959V144.383C205.592 142.86 204.848 142.099 203.363 142.099H201.506C200.021 142.099 199.279 142.86 199.279 144.383V149.959C199.279 151.484 200.021 152.243 201.506 152.243ZM203.576 153.942H201.295C200.075 153.942 199.117 153.597 198.416 152.907C197.718 152.216 197.368 151.251 197.368 150.013V144.329C197.368 143.091 197.716 142.124 198.416 141.435C199.117 140.745 200.073 140.398 201.295 140.398H203.576C204.796 140.398 205.755 140.744 206.456 141.435C207.153 142.124 207.502 143.089 207.502 144.329V150.013C207.502 151.253 207.153 152.216 206.456 152.907C205.755 153.597 204.796 153.942 203.576 153.942Z" fill="#343638"/>
<path d="M215.091 153.942H213.472C213.224 153.942 213.075 153.818 213.021 153.572L209.624 140.772C209.574 140.522 209.661 140.4 209.891 140.4H211.245C211.474 140.4 211.615 140.524 211.669 140.772L214.241 151.019H214.401L217.134 140.772C217.187 140.522 217.328 140.4 217.559 140.4H218.779C219.026 140.4 219.187 140.524 219.257 140.772L221.91 151.019H222.069L224.669 140.772C224.722 140.522 224.863 140.4 225.093 140.4H226.445C226.676 140.4 226.765 140.524 226.712 140.772L223.315 153.572C223.263 153.82 223.112 153.942 222.865 153.942H221.22C220.99 153.942 220.849 153.818 220.796 153.572L218.222 143.588H218.089L215.542 153.572C215.49 153.82 215.339 153.942 215.092 153.942H215.091Z" fill="#343638"/>
<path d="M232.97 152.243H234.827C236.312 152.243 237.054 151.484 237.054 149.959V144.383C237.054 142.86 236.312 142.099 234.827 142.099H232.97C231.485 142.099 230.743 142.86 230.743 144.383V149.959C230.743 151.484 231.485 152.243 232.97 152.243ZM235.04 153.942H232.759C231.539 153.942 230.579 153.597 229.879 152.907C229.181 152.216 228.832 151.251 228.832 150.013V144.329C228.832 143.091 229.181 142.124 229.879 141.435C230.579 140.745 231.537 140.398 232.759 140.398H235.04C236.26 140.398 237.219 140.744 237.918 141.435C238.616 142.124 238.966 143.089 238.966 144.329V150.013C238.966 151.253 238.616 152.216 237.918 152.907C237.219 153.597 236.26 153.942 235.04 153.942Z" fill="#343638"/>
<path d="M243.927 153.942H242.734C242.487 153.942 242.362 153.818 242.362 153.572V140.772C242.362 140.522 242.487 140.4 242.734 140.4H243.927C244.174 140.4 244.298 140.524 244.298 140.772V141.834H244.405C244.581 141.445 244.916 141.109 245.412 140.824C245.908 140.542 246.492 140.398 247.164 140.398H248.198C248.427 140.398 248.542 140.522 248.542 140.77V141.752C248.542 141.878 248.516 141.971 248.463 142.031C248.412 142.095 248.322 142.116 248.198 142.098H246.766C245.969 142.098 245.36 142.336 244.936 142.815C244.511 143.294 244.298 143.949 244.298 144.78V153.57C244.298 153.818 244.174 153.941 243.927 153.941V153.942Z" fill="#343638"/>
<path d="M258.597 140.398H259.924C260.065 140.398 260.158 140.438 260.203 140.518C260.247 140.597 260.223 140.7 260.137 140.824L256.237 146.878V146.985L260.534 153.517C260.605 153.641 260.613 153.742 260.561 153.823C260.507 153.901 260.412 153.942 260.269 153.942H259.022C258.687 153.942 258.439 153.818 258.28 153.57L254.194 147.25C254.088 147.074 254.088 146.886 254.194 146.692L257.961 140.744C258.067 140.514 258.28 140.398 258.598 140.398H258.597ZM252.496 153.942H251.303C251.056 153.942 250.932 153.818 250.932 153.57V140.761C250.932 140.513 251.056 140.389 251.303 140.389H252.496C252.743 140.389 252.867 140.513 252.867 140.761V153.57C252.867 153.82 252.743 153.942 252.496 153.942Z" fill="#343638"/>
<path d="M262.815 153.572V140.772C262.815 140.524 262.929 140.401 263.16 140.401H264.38C264.627 140.401 264.751 140.525 264.751 140.772V153.572C264.751 153.82 264.627 153.942 264.38 153.942H263.186C262.939 153.942 262.815 153.818 262.815 153.572Z" fill="#343638"/>
<path d="M270.109 153.942H268.916C268.669 153.942 268.544 153.818 268.544 153.572V140.772C268.544 140.522 268.669 140.4 268.916 140.4H270.109C270.357 140.4 270.48 140.524 270.48 140.772V141.807H270.587C271.029 140.869 271.931 140.4 273.292 140.4H274.778C275.98 140.4 276.917 140.745 277.591 141.437C278.261 142.127 278.598 143.092 278.598 144.331V153.573C278.598 153.821 278.474 153.944 278.227 153.944H277.034C276.786 153.944 276.662 153.82 276.662 153.573V144.411C276.662 142.871 275.921 142.102 274.433 142.102H272.95C272.152 142.102 271.544 142.315 271.119 142.739C270.694 143.164 270.481 143.766 270.481 144.543V153.573C270.481 153.821 270.357 153.944 270.111 153.944L270.109 153.942Z" fill="#343638"/>
<path d="M290.059 149.083V142.337C290.059 142.178 289.971 142.099 289.795 142.099H286.107C284.622 142.099 283.88 142.87 283.88 144.41V149.217C283.88 150.757 284.622 151.526 286.107 151.526H287.592C288.388 151.526 288.998 151.313 289.423 150.889C289.847 150.464 290.059 149.862 290.059 149.084V149.083ZM287.249 153.225H285.762C284.559 153.225 283.622 152.88 282.951 152.19C282.278 151.499 281.943 150.533 281.943 149.296V144.329C281.943 143.089 282.291 142.126 282.989 141.435C283.688 140.745 284.648 140.398 285.869 140.398H291.626C291.873 140.398 291.998 140.522 291.998 140.77V153.944C291.998 155.164 291.647 156.125 290.95 156.825C290.252 157.524 289.292 157.873 288.071 157.873H283.191C282.926 157.873 282.794 157.749 282.794 157.503V156.521C282.794 156.273 282.926 156.15 283.191 156.15H287.833C289.318 156.15 290.061 155.388 290.061 153.866V151.82H289.955C289.494 152.76 288.593 153.229 287.25 153.229L287.249 153.225Z" fill="#343638"/>
<path d="M271.89 126.805C269.578 124.493 268.424 121.716 268.424 118.477C268.424 115.238 269.579 112.462 271.89 110.149C274.201 107.836 276.975 106.677 280.21 106.677C283.445 106.677 286.217 107.836 288.529 110.149C290.84 112.462 291.998 115.238 291.998 118.477C291.998 121.716 290.841 124.493 288.529 126.805C286.219 129.12 283.446 130.275 280.21 130.275C276.973 130.275 274.199 129.12 271.89 126.805Z" fill="#F0B62B"/>
</g>
<defs>
<clipPath id="clip0_192_23">
<rect width="291.997" height="166.118" fill="white"/>
</clipPath>
</defs>
</svg>
