<svg width="136" height="77" viewBox="0 0 136 77" fill="none" xmlns="http://www.w3.org/2000/svg">
<g clip-path="url(#clip0_473_56)">
<path d="M126.755 0H134.185C134.605 0 134.942 0.344167 134.933 0.76213L133.919 43.1711C133.909 43.5747 133.577 43.8973 133.171 43.8973H127.769C127.363 43.8973 127.031 43.5747 127.022 43.1711L126.008 0.76213C125.998 0.344167 126.335 0 126.755 0Z" fill="white"/>
<path d="M25.0224 40.374L39.0647 57.0403C39.4729 57.5248 39.127 58.2641 38.4918 58.2641H30.4493C30.2275 58.2641 30.0175 58.1662 29.8751 57.9964L20.2314 46.4808C19.9328 46.1249 19.3842 46.1236 19.0849 46.4782L9.3697 57.9983C9.22796 58.1668 9.01862 58.2641 8.79748 58.2641H0.749013C0.114454 58.2641 -0.231371 57.5268 0.175482 57.0422L14.2237 40.3015C14.456 40.0252 14.456 39.6229 14.2237 39.3467L0.175482 22.606C-0.231371 22.1214 0.114454 21.3841 0.749013 21.3841H8.64983C8.87032 21.3841 9.08031 21.4807 9.22139 21.6492L19.0134 33.2457C19.3127 33.5997 19.8586 33.5997 20.1579 33.2457L29.9499 21.6492C30.0916 21.4807 30.301 21.3841 30.5221 21.3841H38.501C39.1349 21.3841 39.4814 22.1201 39.0759 22.6053L25.0211 39.4198C24.7901 39.6967 24.7901 40.099 25.023 40.3753L25.0224 40.374Z" fill="white"/>
<path d="M80.189 58.2641C80.189 63.8211 78.4986 68.3325 75.1171 71.7996C71.7356 75.2667 67.0581 77 61.0859 77C56.333 77 52.1982 76.1112 48.6809 74.3329C48.4308 74.2068 48.2766 73.9475 48.2766 73.668V66.7958C48.2766 66.2009 48.942 65.8462 49.4375 66.178C53.0211 68.5735 57.1263 69.7712 61.752 69.7712C65.0101 69.7712 67.5149 68.7759 69.267 66.784C71.0204 64.7922 71.8957 61.9526 71.8957 58.2641V55.9438C71.8957 55.3096 71.147 54.9609 70.6667 55.3749C67.8594 57.7926 64.5671 59.0014 60.7893 59.0014C56.6434 59.0014 53.151 57.5751 50.3122 54.7232C47.4741 51.8706 46.0547 48.3793 46.0547 44.2486V22.1266C46.0547 21.7152 46.3894 21.3821 46.8021 21.3821H53.5257C53.9391 21.3821 54.2731 21.7158 54.2731 22.1266V43.2899C54.2731 45.6501 55.1124 47.6544 56.7904 49.3014C58.4689 50.9491 60.5177 51.7726 62.9365 51.7726C65.4045 51.7726 67.5149 50.9491 69.267 49.3014C71.0204 47.6544 71.8957 45.6501 71.8957 43.2899V22.1266C71.8957 21.7152 72.2298 21.3821 72.6432 21.3821H79.3687C79.7808 21.3821 80.1155 21.7145 80.1161 22.1253L80.189 58.2635V58.2641Z" fill="white"/>
<path d="M87.1798 52.1527L107.023 29.4011C107.443 28.9192 107.1 28.1681 106.459 28.1681H88.0401C87.6274 28.1681 87.292 27.8351 87.292 27.4236V22.1266C87.292 21.7158 87.6274 21.3821 88.0401 21.3821H118.013C118.426 21.3821 118.76 21.7158 118.76 22.1266V26.8581C118.76 27.037 118.695 27.2101 118.578 27.3459L98.6564 50.2451C98.2364 50.7277 98.5802 51.4774 99.2214 51.4774H118.383C118.796 51.4774 119.131 51.8112 119.131 52.2226V57.5196C119.131 57.9304 118.796 58.2641 118.383 58.2641H87.7435C87.3301 58.2641 86.9961 57.9311 86.9961 57.5196V52.6412C86.9961 52.4623 87.0611 52.2885 87.1792 52.1534L87.1798 52.1527Z" fill="white"/>
<path d="M90.791 70.741V71.1962C90.791 71.3026 90.7332 71.3562 90.6184 71.3562H88.8263C88.258 71.3562 87.8111 71.1962 87.4856 70.8755C87.1601 70.5555 86.998 70.1088 86.998 69.5341V66.8996C86.998 66.3256 87.1601 65.8776 87.4856 65.5582C87.8118 65.2382 88.258 65.0776 88.8263 65.0776H90.6184C90.7332 65.0776 90.791 65.135 90.791 65.25V65.7052C90.791 65.8116 90.7332 65.8652 90.6184 65.8652H88.9253C88.2416 65.8652 87.9003 66.2224 87.9003 66.9356V69.4956C87.9003 70.21 88.2416 70.5673 88.9253 70.5673H90.6184C90.7332 70.5673 90.791 70.6247 90.791 70.739V70.741Z" fill="white"/>
<path d="M93.8531 70.5686H94.718C95.4096 70.5686 95.7561 70.2166 95.7561 69.51V66.9251C95.7561 66.2192 95.4096 65.8665 94.718 65.8665H93.8531C93.1614 65.8665 92.8156 66.2192 92.8156 66.9251V69.51C92.8156 70.2166 93.1614 70.5686 93.8531 70.5686ZM94.8171 71.3562H93.7546C93.1864 71.3562 92.7401 71.1962 92.414 70.8762C92.0885 70.5562 91.9258 70.1088 91.9258 69.5348V66.9003C91.9258 66.3263 92.0879 65.8783 92.414 65.5589C92.7401 65.2389 93.1857 65.0782 93.7546 65.0782H94.8171C95.3853 65.0782 95.8322 65.2382 96.1584 65.5589C96.4832 65.8783 96.6459 66.3256 96.6459 66.9003V69.5348C96.6459 70.1095 96.4832 70.5562 96.1584 70.8762C95.8322 71.1962 95.3853 71.3562 94.8171 71.3562Z" fill="white"/>
<path d="M100.182 71.3562H99.4275C99.312 71.3562 99.2425 71.2987 99.2175 71.1844L97.6354 65.2513C97.6118 65.1357 97.6525 65.0789 97.7594 65.0789H98.39C98.497 65.0789 98.5626 65.1364 98.5876 65.2513L99.7858 70.0011H99.86L101.133 65.2513C101.158 65.1357 101.224 65.0789 101.331 65.0789H101.899C102.014 65.0789 102.089 65.1364 102.122 65.2513L103.358 70.0011H103.432L104.642 65.2513C104.667 65.1357 104.733 65.0789 104.84 65.0789H105.47C105.578 65.0789 105.619 65.1364 105.594 65.2513L104.012 71.1844C103.988 71.2994 103.917 71.3562 103.803 71.3562H103.036C102.929 71.3562 102.863 71.2987 102.839 71.1844L101.64 66.5568H101.578L100.392 71.1844C100.367 71.2994 100.297 71.3562 100.182 71.3562H100.182Z" fill="white"/>
<path d="M108.507 70.5686H109.372C110.064 70.5686 110.41 70.2166 110.41 69.51V66.9251C110.41 66.2192 110.064 65.8665 109.372 65.8665H108.507C107.816 65.8665 107.47 66.2192 107.47 66.9251V69.51C107.47 70.2166 107.816 70.5686 108.507 70.5686ZM109.471 71.3562H108.409C107.841 71.3562 107.394 71.1962 107.068 70.8762C106.743 70.5562 106.58 70.1088 106.58 69.5348V66.9003C106.58 66.3263 106.743 65.8783 107.068 65.5589C107.394 65.2389 107.84 65.0782 108.409 65.0782H109.471C110.04 65.0782 110.487 65.2382 110.812 65.5589C111.137 65.8783 111.3 66.3256 111.3 66.9003V69.5348C111.3 70.1095 111.137 70.5562 110.812 70.8762C110.487 71.1962 110.04 71.3562 109.471 71.3562Z" fill="white"/>
<path d="M113.612 71.3562H113.056C112.941 71.3562 112.883 71.2987 112.883 71.1844V65.2513C112.883 65.1357 112.941 65.0789 113.056 65.0789H113.612C113.727 65.0789 113.784 65.1364 113.784 65.2513V65.7437H113.834C113.916 65.5635 114.073 65.4074 114.304 65.2755C114.535 65.1449 114.806 65.0782 115.119 65.0782H115.601C115.708 65.0782 115.761 65.1357 115.761 65.2507V65.7058C115.761 65.764 115.749 65.8071 115.724 65.8352C115.701 65.8645 115.659 65.8743 115.601 65.8658H114.934C114.563 65.8658 114.279 65.9762 114.082 66.1983C113.884 66.4203 113.784 66.724 113.784 67.1093V71.1838C113.784 71.2987 113.727 71.3555 113.612 71.3555V71.3562Z" fill="white"/>
<path d="M120.445 65.0782H121.063C121.129 65.0782 121.172 65.0965 121.193 65.1338C121.213 65.1703 121.202 65.218 121.162 65.2755L119.346 68.0817V68.1313L121.347 71.159C121.38 71.2164 121.384 71.2635 121.36 71.3007C121.335 71.3372 121.29 71.3562 121.224 71.3562H120.643C120.487 71.3562 120.371 71.2987 120.297 71.1838L118.394 68.2541C118.345 68.1725 118.345 68.0856 118.394 67.9955L120.149 65.2382C120.198 65.1318 120.297 65.0782 120.445 65.0782H120.445ZM117.603 71.3562H117.048C116.933 71.3562 116.875 71.2987 116.875 71.1838V65.2461C116.875 65.1311 116.933 65.0737 117.048 65.0737H117.603C117.718 65.0737 117.776 65.1311 117.776 65.2461V71.1838C117.776 71.2994 117.718 71.3562 117.603 71.3562Z" fill="white"/>
<path d="M122.408 71.1844V65.2513C122.408 65.1363 122.461 65.0795 122.569 65.0795H123.137C123.252 65.0795 123.31 65.137 123.31 65.2513V71.1844C123.31 71.2993 123.252 71.3562 123.137 71.3562H122.581C122.466 71.3562 122.408 71.2987 122.408 71.1844Z" fill="white"/>
<path d="M125.805 71.3562H125.249C125.135 71.3562 125.076 71.2987 125.076 71.1844V65.2513C125.076 65.1357 125.135 65.0789 125.249 65.0789H125.805C125.921 65.0789 125.978 65.1364 125.978 65.2513V65.7313H126.028C126.234 65.2964 126.654 65.0789 127.288 65.0789H127.98C128.54 65.0789 128.976 65.2389 129.29 65.5595C129.602 65.8795 129.759 66.3269 129.759 66.9009V71.1851C129.759 71.3 129.701 71.3568 129.586 71.3568H129.031C128.915 71.3568 128.857 71.2994 128.857 71.1851V66.9382C128.857 66.2244 128.512 65.8678 127.819 65.8678H127.128C126.757 65.8678 126.473 65.9664 126.276 66.163C126.078 66.3602 125.978 66.6391 125.978 66.9996V71.1851C125.978 71.3 125.921 71.3568 125.806 71.3568L125.805 71.3562Z" fill="white"/>
<path d="M135.099 69.1038V65.9769C135.099 65.9031 135.057 65.8665 134.975 65.8665H133.258C132.566 65.8665 132.221 66.2237 132.221 66.9375V69.1658C132.221 69.8796 132.566 70.2362 133.258 70.2362H133.95C134.321 70.2362 134.605 70.1376 134.802 69.941C135 69.7438 135.099 69.4649 135.099 69.1044V69.1038ZM133.79 71.0238H133.097C132.537 71.0238 132.101 70.8638 131.788 70.5438C131.475 70.2238 131.318 69.7758 131.318 69.2024V66.9003C131.318 66.3256 131.48 65.8789 131.806 65.5589C132.131 65.2389 132.578 65.0782 133.147 65.0782H135.829C135.943 65.0782 136.002 65.1357 136.002 65.2507V71.3568C136.002 71.9224 135.838 72.3678 135.514 72.6924C135.189 73.0163 134.741 73.1783 134.173 73.1783H131.9C131.776 73.1783 131.715 73.1208 131.715 73.0065V72.5513C131.715 72.4364 131.776 72.3796 131.9 72.3796H134.062C134.754 72.3796 135.099 72.0262 135.099 71.3209V70.3727H135.05C134.836 70.8083 134.416 71.0257 133.79 71.0257L133.79 71.0238Z" fill="white"/>
<path d="M126.636 58.7774C125.559 57.7057 125.021 56.4185 125.021 54.9171C125.021 53.4157 125.56 52.1292 126.636 51.0569C127.712 49.9845 129.004 49.4477 130.511 49.4477C132.017 49.4477 133.309 49.9845 134.386 51.0569C135.462 52.1292 136.001 53.4157 136.001 54.9171C136.001 56.4185 135.463 57.7057 134.386 58.7774C133.309 59.8504 132.018 60.3859 130.511 60.3859C129.003 60.3859 127.711 59.8504 126.636 58.7774Z" fill="#F0B62B"/>
</g>
<defs>
<clipPath id="clip0_473_56">
<rect width="136" height="77" fill="white"/>
</clipPath>
</defs>
</svg>
